<?xml version="1.0" standalone="no"?><!DOCTYPE svg PUBLIC "-//W3C//DTD SVG 1.1//EN" "http://www.w3.org/Graphics/SVG/1.1/DTD/svg11.dtd"><svg t="1668409542738" class="icon" viewBox="0 0 1024 1024" version="1.1" xmlns="http://www.w3.org/2000/svg" p-id="11702" xmlns:xlink="http://www.w3.org/1999/xlink" width="20" height="20"><path d="M956.1 88.8c7.2 17.4 4.2 32.3-8.9 44.5L634 447.1v472.2c0.8 16.6-9.2 31.8-24.8 37.6-5 2-10.4 3.1-15.9 3.2-10.8 0.3-21.2-4.1-28.6-12.1L402.1 785c-7.8-7.5-12.1-17.8-12-28.6V447.1L76.8 133.4c-13.1-12.3-16.1-27.1-8.9-44.5C75.1 72.3 87.6 64 105.4 64h813.3c17.7 0.1 30.2 8.3 37.4 24.8z" p-id="11703"></path></svg>